 <svg  version="1.0" xmlns="http://www.w3.org/2000/svg"  width="450.000000pt" height="300.000000pt" viewBox="0 0 450.000000 300.000000"  preserveAspectRatio="xMidYMid meet">  <g transform="translate(0.000000,300.000000) scale(0.050000,-0.050000)" fill="#cdcbcb" stroke="none"> <path d="M4900 4809 c0 -56 52 -107 98 -95 44 11 48 8 28 -17 -13 -16 -19 -49 -13 -73 8 -31 3 -44 -19 -44 -32 0 -54 -41 -54 -101 0 -52 89 -20 93 33 1 21 4 46 5 57 1 10 13 3 28 -16 42 -58 144 39 144 137 0 11 26 36 57 56 32 20 51 42 43 50 -9 8 -20 2 -25 -12 -7 -20 -15 -20 -37 -2 -21 17 -28 17 -28 -2 0 -19 -7 -19 -27 -3 -15 13 -31 18 -37 12 -21 -21 -95 -26 -107 -7 -6 10 -20 13 -30 7 -11 -6 -30 -4 -44 4 -28 18 -75 28 -75 16z"/> <path d="M5544 4764 c5 -23 22 -32 56 -27 55 7 96 35 56 38 -14 1 -47 7 -72 12 -36 9 -45 4 -40 -23z"/> <path d="M4465 4766 c19 -5 35 -18 35 -29 0 -10 -9 -14 -20 -7 -30 19 -65 -10 -45 -37 10 -13 19 -45 20 -71 5 -87 142 -110 147 -25 1 21 5 24 11 8 19 -46 47 -26 47 33 0 34 13 63 32 70 49 19 50 16 21 -55 -34 -80 -4 -165 47 -133 17 11 45 15 62 9 20 -6 45 9 66 40 18 28 25 51 15 51 -10 0 -17 16 -16 35 2 22 -13 37 -40 41 -32 5 -40 16 -32 46 11 42 -31 47 -60 8 -9 -12 -15 -10 -15 5 0 14 -18 25 -40 25 -22 0 -40 -8 -40 -17 0 -10 -22 -18 -50 -18 -27 0 -50 8 -50 18 0 9 -29 16 -65 15 -36 -2 -49 -7 -30 -12z"/> <path d="M5931 4744 c-9 -30 -25 -43 -44 -36 -16 7 -24 3 -17 -8 7 -11 39 -18 70 -16 37 3 52 12 42 25 -9 12 -21 35 -26 51 -7 22 -14 17 -25 -16z"/> <path d="M4250 4698 c-33 -10 -75 -15 -94 -10 -19 4 -33 -2 -30 -15 2 -13 -16 -21 -42 -18 -26 3 -86 -17 -133 -44 -48 -26 -92 -44 -97 -38 -13 12 -116 -52 -146 -91 -12 -15 -32 -22 -43 -15 -12 7 -26 2 -32 -12 -8 -20 -10 -20 -11 0 -4 60 -132 28 -157 -40 -22 -59 -21 -61 6 -26 23 30 35 33 53 15 19 -19 17 -24 -8 -24 -17 0 -42 -13 -55 -29 -20 -24 -32 -25 -68 -4 -68 39 -193 14 -193 -38 0 -16 -10 -29 -21 -29 -12 0 -15 -10 -7 -23 10 -16 5 -18 -14 -6 -50 32 -78 26 -78 -14 0 -25 -9 -34 -23 -25 -13 8 -18 5 -11 -6 7 -11 36 -16 64 -11 55 11 69 -23 18 -43 -27 -10 -28 -18 -7 -43 13 -16 29 -26 33 -21 5 5 40 -4 79 -20 71 -30 118 -22 94 17 -9 14 -1 17 24 8 34 -14 35 -12 4 22 -31 34 -29 36 41 29 61 -6 84 3 128 49 84 90 111 107 164 107 60 0 88 66 49 116 -23 29 -23 31 3 12 52 -37 146 -23 171 26 16 33 28 39 44 23 16 -16 31 -14 55 10 39 39 54 41 86 9 25 -25 34 -2 25 63 -4 25 0 25 30 0 32 -26 33 -25 20 19 -11 32 -8 44 8 39 13 -4 23 -16 21 -25 -3 -19 92 -72 130 -72 35 0 53 53 38 112 -8 29 -4 48 10 48 12 0 22 9 22 20 0 24 -68 23 -150 -2z"/> <path d="M5341 4685 c-33 -13 -163 -145 -143 -146 6 0 -3 -9 -21 -20 -42 -24 -26 -99 21 -99 19 0 46 11 61 25 21 20 24 20 13 0 -21 -37 77 -32 108 5 13 16 33 24 44 17 11 -6 9 8 -3 32 -19 35 -29 39 -52 20 -23 -19 -29 -17 -29 9 0 17 8 32 18 32 10 0 23 14 30 31 6 18 3 26 -8 19 -11 -7 -20 -4 -20 7 0 10 14 24 30 30 17 7 30 21 30 32 0 23 -32 25 -79 6z"/> <path d="M5883 4455 c-3 -25 -6 -56 -8 -70 -3 -44 -35 -27 -37 20 -2 41 -4 41 -12 5 -6 -22 -25 -58 -43 -80 -32 -39 -32 -39 10 -4 28 24 48 29 56 15 7 -11 3 -21 -10 -21 -15 0 -19 -18 -11 -50 8 -30 4 -50 -9 -50 -12 0 -16 -8 -10 -19 6 -10 4 -23 -5 -28 -9 -6 -19 -53 -21 -106 -3 -52 -10 -102 -15 -111 -14 -21 34 -235 54 -248 9 -5 26 29 39 76 13 47 36 111 52 142 22 42 24 79 11 154 -10 54 -14 103 -8 109 28 28 34 238 6 247 -11 4 -15 20 -9 35 6 16 3 29 -7 29 -9 0 -20 -20 -23 -45z"/> <path d="M6178 4395 c0 -3 -4 -23 -8 -45 -5 -21 -17 -42 -29 -46 -29 -10 -25 -67 7 -109 23 -31 60 36 50 90 0 3 9 30 20 60 17 45 15 55 -8 55 -17 0 -31 -2 -32 -5z"/> <path d="M4210 4350 c-1359 -299 -1599 -2130 -361 -2750 715 -357 1594 -71 1948 633 115 229 183 567 115 567 -19 0 -25 14 -17 45 12 44 11 44 -36 10 -27 -20 -71 -51 -99 -69 -162 -110 -318 -257 -293 -276 15 -11 31 -33 37 -50 6 -17 17 2 26 46 12 61 20 71 42 52 15 -12 23 -29 18 -38 -5 -8 7 -20 28 -25 28 -8 35 -23 27 -63 -10 -51 -45 -74 -45 -29 0 32 -27 3 -32 -34 -3 -16 5 -23 17 -16 13 8 15 4 5 -13 -8 -14 -18 -56 -20 -93 -2 -38 -17 -79 -34 -93 -17 -13 -55 -58 -85 -99 -31 -41 -63 -70 -72 -65 -9 6 -22 -8 -29 -30 -7 -22 -26 -40 -42 -40 -16 0 -39 -22 -52 -50 -20 -46 -31 -53 -69 -48 -7 1 -18 -6 -25 -15 -13 -18 -209 -117 -266 -134 -18 -6 -38 0 -43 13 -7 18 -10 18 -11 -1 -1 -14 -28 -25 -63 -25 -34 0 -57 -7 -52 -15 5 -8 -54 -18 -131 -21 -93 -4 -135 1 -127 15 8 12 -1 21 -19 21 -18 0 -27 -9 -20 -20 7 -12 -13 -20 -49 -20 -33 0 -61 10 -61 21 0 12 -9 16 -21 8 -11 -7 -33 -2 -49 11 -16 14 -47 17 -74 9 -42 -14 -44 -12 -17 23 23 30 23 33 1 13 -34 -31 -61 -31 -134 -4 -31 12 -56 19 -56 15 -1 -8 -61 42 -117 96 -24 23 -63 49 -88 56 -24 8 -42 22 -40 31 3 9 1 16 -5 16 -23 -4 -102 49 -92 60 21 20 -71 103 -100 91 -20 -7 -25 -1 -16 22 7 19 0 36 -20 44 -17 7 -27 19 -22 28 5 9 -4 21 -22 28 -17 7 -28 23 -23 36 4 13 -7 39 -24 58 -72 81 -84 102 -73 129 6 16 2 29 -8 29 -10 0 -14 13 -7 29 6 17 -3 44 -21 62 -18 17 -33 47 -34 65 -20 357 -8 693 24 673 10 -6 19 5 21 25 2 20 4 50 6 66 5 53 56 139 76 127 10 -6 16 5 12 26 -7 45 82 188 152 242 28 23 51 51 51 64 0 13 8 18 19 12 10 -6 24 7 31 29 7 22 28 40 47 40 18 0 43 20 54 45 11 25 31 43 45 40 13 -3 24 5 24 16 0 12 9 16 20 9 11 -7 20 -5 20 5 0 10 38 34 85 54 47 20 100 50 119 66 19 17 50 23 74 16 22 -7 79 -2 126 11 127 35 396 43 396 12 1 -15 8 -14 22 6 16 23 24 24 31 5 6 -14 23 -25 39 -25 15 0 28 -9 28 -19 0 -11 12 -15 28 -9 31 12 178 -60 159 -78 -6 -6 8 -6 30 0 31 8 48 -3 66 -42 13 -29 31 -53 40 -54 9 -2 28 -4 42 -6 14 -1 24 -23 23 -47 0 -25 9 -45 20 -45 12 0 9 -9 -8 -20 -24 -16 -21 -19 15 -20 25 0 45 -10 45 -23 0 -13 5 -18 12 -12 6 6 29 -3 50 -21 36 -31 36 -34 3 -49 -25 -11 -19 -13 20 -8 45 6 51 2 32 -20 -12 -15 -17 -34 -10 -41 7 -7 13 -1 13 14 0 15 6 21 13 14 7 -8 24 -5 37 6 17 14 39 9 72 -17 69 -54 218 -71 218 -25 0 420 -890 845 -1490 712z"/> <path d="M6415 4165 c9 -85 9 -85 -52 -78 -34 4 -58 1 -53 -8 6 -8 -4 -20 -21 -27 -18 -6 -26 -20 -20 -30 18 -29 -47 -13 -89 23 -37 32 -80 -74 -80 -197 0 -17 -9 -25 -20 -18 -12 7 -20 -13 -20 -48 0 -68 29 -96 69 -63 15 12 39 20 54 17 15 -3 25 5 22 19 -3 14 12 25 33 25 20 0 49 15 65 34 18 23 19 29 2 19 -43 -26 -27 23 17 54 31 22 38 42 29 76 -11 41 -10 43 10 10 21 -34 27 -32 79 27 31 35 71 65 89 68 18 2 32 11 32 18 -1 8 -1 25 -1 39 -1 17 -7 15 -20 -5 -17 -26 -19 -25 -20 5 0 19 -9 35 -19 35 -11 0 -15 14 -8 30 6 17 1 30 -11 30 -12 0 -22 -9 -22 -20 0 -34 -37 -22 -45 15 -5 19 -5 -3 0 -50z"/> <path d="M2965 4019 c-28 -34 -38 -61 -25 -69 11 -7 26 1 32 19 7 17 19 26 28 21 30 -18 63 43 35 65 -18 14 -38 4 -70 -36z"/> <path d="M3064 4016 c-13 -13 -24 -36 -24 -51 0 -15 -9 -22 -20 -15 -12 7 -19 1 -15 -14 6 -33 -102 -39 -145 -8 -26 19 -26 17 -3 -13 16 -19 44 -35 64 -35 20 0 48 -11 63 -25 33 -32 116 -44 116 -18 0 11 -18 26 -40 33 -22 7 -40 21 -40 30 0 30 41 44 67 23 14 -12 36 -14 53 -3 15 9 34 14 42 9 7 -5 24 4 37 20 20 24 11 35 -50 60 -88 37 -76 36 -105 7z"/> <path d="M2808 3786 c-6 -20 -22 -58 -36 -86 -28 -57 -30 -101 -4 -98 10 1 25 -11 34 -25 14 -21 17 -21 18 -2 0 19 12 18 48 -5 45 -30 51 -29 97 14 111 105 97 181 -39 202 -35 6 -73 16 -85 23 -12 8 -26 -3 -33 -23z"/> <path d="M6455 3519 c-59 -53 -61 -57 -17 -45 39 10 46 6 36 -20 -22 -57 132 22 165 85 34 62 -107 46 -184 -20z"/> <path d="M2702 3513 c-25 -28 -40 -60 -33 -72 7 -11 3 -21 -9 -21 -12 0 -17 -8 -12 -18 13 -19 -40 -135 -70 -153 -29 -18 -1 -49 44 -49 113 0 321 140 264 177 -36 24 -40 73 -8 98 29 22 28 24 -3 13 -20 -7 -35 -2 -35 11 0 13 -10 17 -21 10 -12 -7 -33 2 -46 20 -22 30 -28 29 -71 -16z"/> <path d="M6805 3500 c2 -22 10 -40 19 -40 8 0 9 -15 2 -33 -8 -21 -5 -29 9 -20 11 7 26 -1 32 -17 21 -55 46 -31 37 35 -12 92 -105 162 -99 75z"/> <path d="M5183 3397 c-39 -14 -43 -23 -23 -47 29 -35 49 -40 29 -8 -9 13 4 19 34 15 26 -4 47 -20 47 -37 0 -43 62 -48 139 -12 106 50 77 112 -51 112 -65 0 -98 -8 -98 -25 -1 -18 -5 -18 -15 -3 -10 15 -31 17 -62 5z"/> <path d="M5127 3227 c7 -8 29 -15 48 -18 19 -2 51 -10 70 -18 41 -18 95 -1 95 28 0 12 -49 21 -113 21 -63 0 -108 -6 -100 -13z"/> <path d="M5560 3170 c-14 -17 -37 -30 -52 -30 -15 0 -37 -19 -49 -42 -20 -37 -18 -39 17 -20 21 11 71 15 111 9 50 -9 73 -5 73 12 0 13 -20 22 -45 20 -77 -6 -87 1 -37 29 26 15 38 32 27 39 -11 7 -32 -1 -45 -17z"/> <path d="M5130 3160 c-11 -18 47 -44 68 -31 8 5 45 2 84 -7 38 -9 87 -8 108 2 37 15 36 16 -4 9 -24 -5 -47 -2 -50 6 -8 21 -194 40 -206 21z"/> <path d="M2681 3101 c-16 -10 -36 -14 -45 -8 -9 5 -16 0 -16 -12 0 -11 9 -21 19 -21 11 0 14 -15 7 -33 -9 -23 -5 -29 11 -19 15 9 23 -2 23 -33 0 -47 -101 -127 -127 -101 -13 13 -15 -1 -22 -135 -3 -40 -11 -83 -19 -95 -21 -35 20 -29 58 9 18 17 28 44 22 58 -12 33 39 79 57 51 6 -10 2 -25 -9 -32 -31 -19 -5 -47 35 -40 19 4 42 8 50 8 8 1 14 9 13 17 -8 50 8 81 52 101 56 26 67 64 18 64 -25 0 -30 14 -24 61 7 47 2 59 -22 55 -37 -6 -82 18 -82 44 0 9 20 20 43 24 24 3 48 17 52 31 10 29 -51 33 -94 6z"/> <path d="M2559 3100 c-13 -52 -7 -185 8 -194 10 -7 13 -3 6 9 -7 11 1 26 17 32 38 15 38 74 1 124 -17 22 -31 35 -32 29z"/> <path d="M6220 3022 c0 -9 23 -32 50 -50 28 -18 50 -44 50 -58 0 -14 37 -66 82 -115 45 -49 101 -117 125 -152 82 -121 299 -377 311 -367 19 16 3 87 -23 104 -19 12 -19 15 2 16 39 0 17 46 -26 52 -54 8 -78 40 -78 107 0 42 -10 61 -31 62 -24 1 -22 6 7 17 40 16 -10 55 -57 44 -10 -2 -6 11 10 31 18 22 19 29 3 20 -18 -11 -25 3 -27 51 0 36 -6 55 -11 41 -6 -14 -24 -25 -40 -25 -16 0 -24 9 -18 19 13 21 -48 59 -114 72 -54 10 -83 40 -67 66 12 19 80 17 207 -6 24 -5 50 0 56 10 6 11 -9 20 -35 21 -85 4 -153 15 -230 37 -93 25 -146 27 -146 3z"/> <path d="M5460 2994 c-32 -16 -49 -41 -48 -70 2 -25 -9 -44 -25 -44 -31 0 -36 -32 -7 -50 11 -7 20 -2 20 10 0 12 10 16 22 9 13 -8 20 2 17 24 -6 61 0 87 21 87 11 0 20 -28 20 -63 0 -62 1 -62 40 -27 37 34 38 37 5 62 -39 28 3 30 48 2 13 -8 38 0 55 17 42 41 41 56 -2 32 -23 -13 -42 -10 -61 9 -34 34 -42 34 -105 2z"/> <path d="M5668 2930 c-28 -28 -72 -65 -97 -81 -30 -20 -43 -44 -37 -67 6 -26 -11 -49 -58 -78 -79 -49 -166 -144 -132 -144 81 0 517 374 471 404 -45 28 -96 17 -147 -34z"/> <path d="M6201 2746 c1 -34 119 -172 119 -140 0 18 -27 60 -60 94 -33 34 -60 54 -59 46z"/> <path d="M6098 2425 c-2 -8 -1 -23 0 -32 2 -10 -6 -29 -18 -43 -40 -49 -43 -126 -5 -149 31 -18 31 -23 5 -41 -26 -18 -25 -25 9 -50 30 -24 42 -25 55 -5 11 19 15 17 16 -6 0 -33 -37 -79 -65 -79 -10 0 -12 9 -5 20 18 30 -9 24 -42 -9 -40 -40 -5 -54 57 -22 29 15 59 21 67 14 8 -7 7 0 -2 15 -13 22 -6 26 32 16 40 -10 43 -8 18 12 -20 16 -31 65 -33 143 -3 74 -14 127 -31 140 -15 12 -24 37 -20 56 4 19 -3 35 -15 35 -11 0 -22 -7 -23 -15z"/> <path d="M6335 2402 c-13 -49 19 -76 51 -44 16 16 14 31 -9 54 -29 28 -33 27 -42 -10z"/> <path d="M2858 2330 c-2 -5 -4 -19 -5 -31 -2 -11 -16 -29 -33 -39 -23 -15 -17 -19 25 -20 55 0 73 26 35 50 -12 7 -15 21 -9 31 6 11 6 19 0 19 -6 0 -12 -4 -13 -10z"/> <path d="M2915 2158 c-20 -11 -31 -28 -25 -38 28 -46 -133 -74 -176 -31 -39 39 -47 39 -47 -2 0 -45 59 -102 94 -91 16 5 12 -4 -9 -21 -30 -22 -32 -32 -12 -45 18 -11 22 -8 12 12 -8 15 -1 11 17 -11 33 -41 37 -34 32 54 -4 54 25 74 49 35 7 -11 2 -20 -10 -20 -37 0 32 -59 105 -89 37 -16 78 -21 92 -13 14 9 47 12 72 7 43 -8 46 -17 33 -82 -1 -5 -15 3 -30 16 -22 17 -32 17 -43 -1 -9 -15 -7 -19 6 -11 12 7 25 5 28 -5 8 -22 46 -28 127 -22 36 3 46 8 25 14 -19 5 -35 18 -35 30 0 12 -33 52 -73 90 l-72 68 -38 -41 c-46 -49 -74 -55 -34 -8 15 18 25 39 23 45 -2 7 1 31 7 55 22 91 -43 149 -118 105z"/> <path d="M5835 1791 c-39 -28 -49 -62 -12 -39 15 9 18 5 8 -10 -8 -13 -9 -39 -1 -58 10 -27 19 -20 42 34 33 78 15 112 -37 73z"/> <path d="M6210 1770 c-42 -51 -129 -67 -131 -25 -1 14 -11 5 -23 -20 -12 -25 -33 -45 -47 -45 -14 0 -30 -13 -36 -30 -7 -18 -37 -30 -76 -30 -37 0 -83 -17 -108 -41 -41 -39 -46 -39 -77 -8 -19 19 -39 29 -44 23 -6 -6 -37 -3 -70 6 -44 13 -58 11 -58 -10 0 -27 -73 -63 -109 -53 -81 23 -234 -69 -220 -132 3 -15 1 -17 -4 -5 -22 44 -66 21 -49 -25 21 -56 95 -63 86 -8 -6 31 -2 33 22 10 24 -22 20 -34 -32 -82 l-60 -56 -65 70 c-61 68 -129 81 -129 26 0 -12 -6 -16 -13 -9 -15 16 -67 -22 -67 -48 0 -10 14 -18 30 -18 45 0 36 -31 -10 -35 -22 -1 -40 6 -40 16 0 11 -10 19 -22 19 -13 0 -17 -15 -10 -35 8 -21 -3 -15 -26 15 l-39 50 -25 -60 -25 -60 -8 50 c-12 72 -35 87 -74 48 -27 -27 -29 -37 -7 -51 19 -12 17 -16 -11 -17 -25 0 -33 10 -26 30 7 17 -5 38 -28 50 -31 17 -39 15 -39 -9 0 -17 -9 -31 -20 -31 -11 0 -18 10 -15 23 6 25 -81 39 -96 16 -5 -9 -27 -11 -49 -5 -29 8 -44 -3 -59 -42 -23 -60 -50 -72 -32 -14 7 21 3 45 -9 52 -11 7 -15 23 -7 34 8 13 4 16 -10 8 -12 -8 -38 -6 -57 5 -21 12 -52 12 -84 0 -38 -14 -56 -12 -71 8 -15 20 -38 24 -77 13 -45 -12 -54 -9 -50 19 7 38 -6 37 -106 -4 -61 -27 -71 -27 -71 -2 0 16 7 29 15 29 38 0 81 66 54 83 -32 21 -136 22 -136 2 0 -20 -116 -85 -153 -85 -17 0 -23 10 -15 23 9 15 5 18 -10 8 -18 -11 -18 -22 -2 -41 17 -21 12 -28 -22 -33 -25 -4 -49 -20 -54 -35 -7 -20 1 -24 23 -16 39 15 43 -7 8 -46 -14 -16 -5 -12 20 9 26 21 45 27 45 14 0 -22 72 6 100 39 17 20 100 35 100 19 0 -23 -52 -63 -64 -50 -6 6 -16 -3 -23 -19 -7 -20 -2 -26 18 -19 16 6 29 1 29 -12 0 -27 86 -7 97 22 3 9 19 17 35 17 23 0 24 -7 4 -39 -38 -61 -5 -70 86 -23 78 41 85 42 120 11 20 -19 49 -29 65 -23 15 6 36 3 46 -6 9 -9 64 -21 121 -26 57 -6 113 -16 125 -23 11 -7 21 -5 21 6 0 23 111 17 169 -7 24 -11 41 -9 46 4 4 12 24 17 46 12 21 -6 34 -18 29 -26 -5 -9 5 -27 22 -42 28 -23 31 -20 25 23 -7 52 56 73 88 30 10 -15 20 -15 30 0 17 23 55 26 75 5 8 -7 33 4 56 25 32 30 45 33 57 14 11 -16 16 -17 17 -3 0 13 35 27 77 33 43 6 108 24 145 42 37 17 127 50 198 74 72 23 137 55 146 71 9 15 33 28 54 28 21 0 47 16 58 35 13 22 21 25 21 9 1 -18 15 -22 44 -13 28 9 38 6 28 -9 -8 -13 3 -22 29 -22 23 0 37 9 30 20 -7 11 -5 20 4 20 9 0 25 20 36 44 11 24 52 54 90 67 39 13 67 35 64 49 -3 15 7 20 25 13 17 -6 31 -2 31 10 0 13 21 16 55 9 30 -7 45 -6 32 3 -18 11 -16 25 5 54 20 28 28 30 28 10 1 -19 6 -21 15 -7 8 12 25 26 37 30 14 5 11 20 -10 42 -31 31 -36 30 -72 -14z"/> <path d="M3214 1695 c-80 -16 -93 -25 -83 -57 9 -30 1 -38 -35 -39 -35 -1 -25 -11 43 -42 50 -21 95 -46 100 -54 31 -41 127 -85 146 -66 11 11 32 15 47 9 16 -6 28 0 28 12 0 12 7 21 15 20 42 -7 65 5 65 34 0 27 5 28 30 8 17 -14 30 -17 30 -7 0 29 -80 89 -122 93 -21 1 -43 17 -48 35 -9 26 -99 86 -116 77 -2 -2 -47 -12 -100 -23z"/> <path d="M3962 1132 c-19 -22 -11 -29 37 -36 51 -8 56 -4 36 20 -21 25 -17 27 23 15 32 -11 43 -8 33 7 -19 31 -102 27 -129 -6z"/> </g> </svg> 